<svg id="Layer_1" data-name="Layer 1" xmlns="http://www.w3.org/2000/svg" viewBox="0 0 394.85 323.1"><defs><style>.cls-1{fill:#231f20;}.cls-2{fill:#e6e7e8;}</style></defs><path class="cls-1" d="M-405-261a36,36,0,0,1-38.55,35.91,36.1,36.1,0,0,1-33.36-33.36A36,36,0,0,1-441-297a35.82,35.82,0,0,1,8.21.94,1,1,0,0,1,.79,1v7.19a1,1,0,0,1-1.29,1,27.12,27.12,0,0,0-9.58-1.06,27.1,27.1,0,0,0-25,24.58,27,27,0,0,0,29.25,29.26,27.1,27.1,0,0,0,24.59-25A27,27,0,0,0-415.54-270a26.54,26.54,0,0,0-5.35-9,23.28,23.28,0,0,0-1.77-1.81,1,1,0,0,1-.34-.75v-8.8a1,1,0,0,1,1.58-.85A36.24,36.24,0,0,1-409.82-279a35.89,35.89,0,0,1,3.69,9A36.09,36.09,0,0,1-405-261Z" transform="translate(720 305.1)"/><path class="cls-1" d="M-401.32-279h-7.92a1,1,0,0,1-.88-.5A36.14,36.14,0,0,0-423-292.18a36.27,36.27,0,0,0-8.25-3.49,1,1,0,0,1-.75-1v-7.18a1,1,0,0,1,1.24-1,45.57,45.57,0,0,1,7.76,2.58,45.17,45.17,0,0,1,22.6,21.82A1,1,0,0,1-401.32-279Z" transform="translate(720 305.1)"/><path class="cls-1" d="M-423-280.63v19.14c0,9.93-7.83,18.35-17.75,18.49A18,18,0,0,1-459-260.89,18.15,18.15,0,0,1-441.25-279a17.78,17.78,0,0,1,7.79,1.66,1,1,0,0,0,1.46-.92V-285a1,1,0,0,1,1.42-.93,26.61,26.61,0,0,1,7.22,4.49A1.05,1.05,0,0,1-423-280.63Z" transform="translate(720 305.1)"/><path class="cls-1" d="M-522-261a36,36,0,0,1-36,36,36,36,0,0,1-36-36,36,36,0,0,1,36-36,36.09,36.09,0,0,1,9,1.13v9.41a26.79,26.79,0,0,0-9-1.54,27,27,0,0,0-27,27,27,27,0,0,0,27,27,27,27,0,0,0,27-27,26.79,26.79,0,0,0-1.54-9,26.54,26.54,0,0,0-5.35-9,23.34,23.34,0,0,0-2.11-2.11v-11.07A36.21,36.21,0,0,1-526.82-279a35.89,35.89,0,0,1,3.69,9A36.09,36.09,0,0,1-522-261Z" transform="translate(720 305.1)"/><path class="cls-1" d="M-516.75-279h-10.07A36.21,36.21,0,0,0-540-292.18a35.89,35.89,0,0,0-9-3.69v-9.23a44.93,44.93,0,0,1,9,2.85A45.11,45.11,0,0,1-516.75-279Z" transform="translate(720 305.1)"/><path class="cls-1" d="M-540-281.11V-261a18,18,0,0,1-18,18,18,18,0,0,1-18-18,18,18,0,0,1,18-18,17.84,17.84,0,0,1,9,2.42v-9.88A26.54,26.54,0,0,1-540-281.11Z" transform="translate(720 305.1)"/><path class="cls-1" d="M-388.13-180A36.2,36.2,0,0,1-387-169.22a36.1,36.1,0,0,1-32.8,34.09,36,36,0,0,1-39-39A36.1,36.1,0,0,1-424.78-207a36.28,36.28,0,0,1,10,.9,1,1,0,0,1,.78,1v7.22a1,1,0,0,1-1.27,1,27.21,27.21,0,0,0-9.6-1.06,27.1,27.1,0,0,0-25,24.58,27,27,0,0,0,29.25,29.26,27.1,27.1,0,0,0,24.59-25A27,27,0,0,0-397.54-180a26.54,26.54,0,0,0-5.35-9,25.05,25.05,0,0,0-1.77-1.8,1.08,1.08,0,0,1-.34-.77v-10a1.06,1.06,0,0,0-.54-.93,36.35,36.35,0,0,0-7.72-3.18,1,1,0,0,1-.74-1v-7.21a1,1,0,0,1,1.22-1,44.92,44.92,0,0,1,7.78,2.58,45.09,45.09,0,0,1,22.58,21.8,1,1,0,0,1-.93,1.45h-6.77a1,1,0,0,0-.9,1.45A36.59,36.59,0,0,1-388.13-180Z" transform="translate(720 305.1)"/><path class="cls-1" d="M-405-190.64v19.21c0,9.11-6.59,17.12-15.62,18.28A18,18,0,0,1-441-170.89,18.15,18.15,0,0,1-423.25-189a17.85,17.85,0,0,1,7.8,1.66,1,1,0,0,0,1.45-.92V-195a1,1,0,0,1,1.44-.95,26.71,26.71,0,0,1,7.21,4.49A1,1,0,0,1-405-190.64Z" transform="translate(720 305.1)"/><path class="cls-1" d="M-550.13-162a36.09,36.09,0,0,1,1.13,9,36,36,0,0,1-36,36,36,36,0,0,1-36-36,36,36,0,0,1,36-36,36.09,36.09,0,0,1,9,1.13v9.41a26.79,26.79,0,0,0-9-1.54,27,27,0,0,0-27,27,27,27,0,0,0,27,27,27,27,0,0,0,27-27,26.79,26.79,0,0,0-1.54-9,26.54,26.54,0,0,0-5.35-9,23.34,23.34,0,0,0-2.11-2.11v-11.07a35.89,35.89,0,0,0-9-3.69v-9.23l.93.2.67.16c.48.11,1,.24,1.43.37l.66.19.91.28,1.12.37h0q.54.18,1.08.39l1,.38,1.23.52.91.41c.34.15.68.31,1,.48l.9.46c.63.33,1.24.67,1.85,1,.34.19.67.39,1,.6l.79.5.79.53.13.09c.56.38,1.11.78,1.66,1.19s1.1.85,1.64,1.3l.8.68,1.05.94c.85.78,1.67,1.6,2.45,2.45l.94,1c.23.26.46.53.68.8.45.54.88,1.09,1.3,1.64s.81,1.1,1.19,1.66l.09.13.53.79.5.79c.21.33.41.66.6,1,.36.61.7,1.22,1,1.85l.46.9c.32.65.63,1.3.91,2a44.93,44.93,0,0,1,2.85,9Z" transform="translate(720 305.1)"/><path class="cls-1" d="M-567-173.11V-153a18,18,0,0,1-18,18,18,18,0,0,1-18-18,18,18,0,0,1,18-18,17.84,17.84,0,0,1,9,2.42v-9.88A26.54,26.54,0,0,1-567-173.11Z" transform="translate(720 305.1)"/><path class="cls-1" d="M-451.13-72A36.09,36.09,0,0,1-450-63a36,36,0,0,1-36,36,36,36,0,0,1-36-36,36,36,0,0,1,36-36,36.09,36.09,0,0,1,9,1.13v9.41A26.79,26.79,0,0,0-486-90a27,27,0,0,0-27,27,27,27,0,0,0,27,27,27,27,0,0,0,27-27,26.79,26.79,0,0,0-1.54-9,26.54,26.54,0,0,0-5.35-9A23.34,23.34,0,0,0-468-83.11V-94.18a35.89,35.89,0,0,0-9-3.69v-9.23l.93.2.67.16c.48.11,1,.24,1.43.37l.66.19.91.28,1.12.37h0q.54.18,1.08.39l1,.38,1.23.52.91.41c.34.15.68.31,1,.48l.9.46c.63.33,1.24.67,1.85,1,.34.19.67.39,1,.6l.79.5.79.53.13.09c.56.38,1.11.78,1.66,1.19s1.1.85,1.64,1.3l.8.68,1.05.94c.85.78,1.67,1.6,2.45,2.45l.94,1c.23.26.46.53.68.8.45.54.88,1.09,1.3,1.64s.81,1.1,1.19,1.66l.09.13.53.79.5.79c.21.33.41.66.6,1,.36.61.7,1.22,1,1.85l.46.9c.32.65.63,1.3.91,2a44.93,44.93,0,0,1,2.85,9Z" transform="translate(720 305.1)"/><path class="cls-1" d="M-468-83.11V-63a18,18,0,0,1-18,18,18,18,0,0,1-18-18,18,18,0,0,1,18-18,17.84,17.84,0,0,1,9,2.42v-9.88A26.54,26.54,0,0,1-468-83.11Z" transform="translate(720 305.1)"/><path class="cls-1" d="M-649.13-63A36.09,36.09,0,0,1-648-54a36,36,0,0,1-36,36,36,36,0,0,1-36-36,36,36,0,0,1,36-36,36.09,36.09,0,0,1,9,1.13v9.41A26.79,26.79,0,0,0-684-81a27,27,0,0,0-27,27,27,27,0,0,0,27,27,27,27,0,0,0,27-27,26.79,26.79,0,0,0-1.54-9,26.54,26.54,0,0,0-5.35-9A23.34,23.34,0,0,0-666-74.11V-85.18a35.89,35.89,0,0,0-9-3.69V-98.1a44.93,44.93,0,0,1,9,2.85A45.11,45.11,0,0,1-642.75-72a44.93,44.93,0,0,1,2.85,9Z" transform="translate(720 305.1)"/><path class="cls-1" d="M-666-74.11V-54a18,18,0,0,1-18,18,18,18,0,0,1-18-18,18,18,0,0,1,18-18,17.84,17.84,0,0,1,9,2.42v-9.88A26.54,26.54,0,0,1-666-74.11Z" transform="translate(720 305.1)"/><path class="cls-1" d="M-567.83-25.74A36.43,36.43,0,0,1-567-19a36.22,36.22,0,0,1-36,37,36,36,0,0,1-36-36,36.22,36.22,0,0,1,37-36,36.28,36.28,0,0,1,7.2.92,1,1,0,0,1,.8,1v7.17a1,1,0,0,1-1.3,1,27.07,27.07,0,0,0-9.57-1.06,27.1,27.1,0,0,0-25,24.58A27,27,0,0,0-600.65,8.9a27.1,27.1,0,0,0,24.59-25A27,27,0,0,0-577.54-27a26.54,26.54,0,0,0-5.35-9,21.72,21.72,0,0,0-1.78-1.81,1,1,0,0,1-.33-.75v-10a1,1,0,0,0-.53-.91,36,36,0,0,0-7.73-3.19,1,1,0,0,1-.74-1v-7.19a1,1,0,0,1,1.24-1A45.28,45.28,0,0,1-585-59.25,45.11,45.11,0,0,1-561.75-36a45.28,45.28,0,0,1,2.58,7.76,1,1,0,0,1-1,1.24h-6.67A1,1,0,0,0-567.83-25.74Z" transform="translate(720 305.1)"/><path class="cls-1" d="M-585-37.63v19.14C-585-8.56-592.83-.14-602.75,0A18,18,0,0,1-621-17.89,18.15,18.15,0,0,1-603.25-36a17.85,17.85,0,0,1,7.8,1.66,1,1,0,0,0,1.45-.92V-42a1,1,0,0,1,1.42-.93,26.33,26.33,0,0,1,7.22,4.48A1.07,1.07,0,0,1-585-37.63Z" transform="translate(720 305.1)"/><path class="cls-2" d="M-333.83-61.74A36.43,36.43,0,0,1-333-55a36.22,36.22,0,0,1-36,37,36,36,0,0,1-36-36,36.22,36.22,0,0,1,37-36,36.28,36.28,0,0,1,7.2.92,1,1,0,0,1,.8,1v7.17a1,1,0,0,1-1.3,1,27.07,27.07,0,0,0-9.57-1.06,27.1,27.1,0,0,0-25,24.58A27,27,0,0,0-366.65-27.1a27.1,27.1,0,0,0,24.59-25A27,27,0,0,0-343.54-63a26.54,26.54,0,0,0-5.35-9,21.72,21.72,0,0,0-1.78-1.81,1,1,0,0,1-.33-.75v-10a1,1,0,0,0-.53-.91,36,36,0,0,0-7.73-3.19,1,1,0,0,1-.74-1v-7.19a1,1,0,0,1,1.24-1A45.28,45.28,0,0,1-351-95.25,45.11,45.11,0,0,1-327.75-72a45.28,45.28,0,0,1,2.58,7.76,1,1,0,0,1-1,1.24h-6.67A1,1,0,0,0-333.83-61.74Z" transform="translate(720 305.1)"/><path class="cls-2" d="M-351-73.63v19.14c0,9.93-7.83,18.35-17.75,18.49A18,18,0,0,1-387-53.89,18.15,18.15,0,0,1-369.25-72a17.85,17.85,0,0,1,7.8,1.66,1,1,0,0,0,1.45-.92V-78a1,1,0,0,1,1.42-.93,26.33,26.33,0,0,1,7.22,4.48A1.07,1.07,0,0,1-351-73.63Z" transform="translate(720 305.1)"/></svg>